<?xml version="1.0" encoding="UTF-8"?>
<svg width="441px" height="361px" viewBox="0 0 441 361" version="1.1" xmlns="http://www.w3.org/2000/svg" xmlns:xlink="http://www.w3.org/1999/xlink">
    <title>操作机</title>
    <defs>
        <linearGradient x1="83.9790654%" y1="3.72301483%" x2="14.6188584%" y2="97.4939268%" id="linearGradient-1">
            <stop stop-color="#74787C" offset="0%"></stop>
            <stop stop-color="#E4E8EB" offset="9.78197272%"></stop>
            <stop stop-color="#E1E4E8" offset="51.6963301%"></stop>
            <stop stop-color="#37393B" offset="72.9631425%"></stop>
            <stop stop-color="#74787C" offset="91.4054383%"></stop>
            <stop stop-color="#313437" offset="100%"></stop>
        </linearGradient>
        <linearGradient x1="100%" y1="50%" x2="0%" y2="50%" id="linearGradient-2">
            <stop stop-color="#87898A" offset="0%"></stop>
            <stop stop-color="#4F5152" offset="100%"></stop>
        </linearGradient>
        <linearGradient x1="100%" y1="50%" x2="0%" y2="50%" id="linearGradient-3">
            <stop stop-color="#87898A" offset="0%"></stop>
            <stop stop-color="#4F5152" offset="100%"></stop>
        </linearGradient>
        <linearGradient x1="100%" y1="50%" x2="0%" y2="50%" id="linearGradient-4">
            <stop stop-color="#87898A" offset="0%"></stop>
            <stop stop-color="#4F5152" offset="100%"></stop>
        </linearGradient>
        <linearGradient x1="62.262644%" y1="19.4530757%" x2="29.5090839%" y2="74.9750458%" id="linearGradient-5">
            <stop stop-color="#B8BAC0" offset="0%"></stop>
            <stop stop-color="#D4D8DE" offset="30.2014899%"></stop>
            <stop stop-color="#636467" offset="87.2729698%"></stop>
            <stop stop-color="#A9ACB0" offset="100%"></stop>
        </linearGradient>
        <linearGradient x1="50%" y1="0%" x2="47.3683338%" y2="47.2897885%" id="linearGradient-6">
            <stop stop-color="#74787C" offset="0%"></stop>
            <stop stop-color="#E4E8EB" offset="9.78197272%"></stop>
            <stop stop-color="#74787C" offset="37.4221386%"></stop>
            <stop stop-color="#37393B" offset="86.4977293%"></stop>
            <stop stop-color="#313437" offset="100%"></stop>
        </linearGradient>
        <linearGradient x1="50%" y1="63.6648561%" x2="50%" y2="100%" id="linearGradient-7">
            <stop stop-color="#787A7E" offset="0%"></stop>
            <stop stop-color="#97999C" offset="100%"></stop>
        </linearGradient>
        <linearGradient x1="47.1303913%" y1="8.41917089%" x2="65.407339%" y2="83.2898655%" id="linearGradient-8">
            <stop stop-color="#74787C" offset="0%"></stop>
            <stop stop-color="#E4E8EB" offset="9.78197272%"></stop>
            <stop stop-color="#74787C" offset="37.4221386%"></stop>
            <stop stop-color="#37393B" offset="77.1735819%"></stop>
            <stop stop-color="#313437" offset="100%"></stop>
        </linearGradient>
        <radialGradient cx="38.5455277%" cy="32.9365489%" fx="38.5455277%" fy="32.9365489%" r="96.1016385%" gradientTransform="translate(0.385455,0.329365),scale(0.750000,1.000000),rotate(36.268575),scale(1.000000,1.033210),translate(-0.385455,-0.329365)" id="radialGradient-9">
            <stop stop-color="#707174" offset="0%"></stop>
            <stop stop-color="#252628" offset="100%"></stop>
        </radialGradient>
        <linearGradient x1="71.4264375%" y1="9.31006937%" x2="45.0723609%" y2="86.4160797%" id="linearGradient-10">
            <stop stop-color="#686B6F" offset="0%"></stop>
            <stop stop-color="#AAACAE" offset="29.9689796%"></stop>
            <stop stop-color="#37383A" offset="87.5802178%"></stop>
            <stop stop-color="#686B6F" offset="100%"></stop>
        </linearGradient>
        <linearGradient x1="100%" y1="50%" x2="0%" y2="50%" id="linearGradient-11">
            <stop stop-color="#87898A" offset="0%"></stop>
            <stop stop-color="#4F5152" offset="100%"></stop>
        </linearGradient>
        <linearGradient x1="70.1764116%" y1="9.31006937%" x2="45.3598411%" y2="86.4160797%" id="linearGradient-12">
            <stop stop-color="#686B6F" offset="0%"></stop>
            <stop stop-color="#AAACAE" offset="29.9689796%"></stop>
            <stop stop-color="#37383A" offset="87.5802178%"></stop>
            <stop stop-color="#686B6F" offset="100%"></stop>
        </linearGradient>
        <linearGradient x1="100%" y1="50%" x2="0%" y2="50%" id="linearGradient-13">
            <stop stop-color="#87898A" offset="0%"></stop>
            <stop stop-color="#4F5152" offset="100%"></stop>
        </linearGradient>
        <linearGradient x1="61.372935%" y1="7.58589327%" x2="22.1664494%" y2="82.8156348%" id="linearGradient-14">
            <stop stop-color="#A1A5AC" offset="0%"></stop>
            <stop stop-color="#D6D9DE" offset="24.222151%"></stop>
            <stop stop-color="#505255" offset="81.2370549%"></stop>
            <stop stop-color="#898E95" offset="100%"></stop>
        </linearGradient>
        <linearGradient x1="76.2389288%" y1="9.31006937%" x2="20.3293731%" y2="84.1499772%" id="linearGradient-15">
            <stop stop-color="#686B6F" offset="0%"></stop>
            <stop stop-color="#AAACAE" offset="29.9689796%"></stop>
            <stop stop-color="#37383A" offset="87.5802178%"></stop>
            <stop stop-color="#686B6F" offset="100%"></stop>
        </linearGradient>
        <linearGradient x1="100%" y1="50%" x2="0%" y2="50%" id="linearGradient-16">
            <stop stop-color="#87898A" offset="0%"></stop>
            <stop stop-color="#4F5152" offset="100%"></stop>
        </linearGradient>
        <linearGradient x1="50%" y1="37.5841985%" x2="36.8000744%" y2="54.5781934%" id="linearGradient-17">
            <stop stop-color="#B8BAC0" offset="0%"></stop>
            <stop stop-color="#D4D8DE" offset="30.2014899%"></stop>
            <stop stop-color="#636467" offset="87.2729698%"></stop>
            <stop stop-color="#A9ACB0" offset="100%"></stop>
        </linearGradient>
        <linearGradient x1="48.3516787%" y1="41.9007387%" x2="39.6403902%" y2="52.1360208%" id="linearGradient-18">
            <stop stop-color="#B8BAC0" offset="0%"></stop>
            <stop stop-color="#D4D8DE" offset="30.2014899%"></stop>
            <stop stop-color="#636467" offset="87.2729698%"></stop>
            <stop stop-color="#A9ACB0" offset="100%"></stop>
        </linearGradient>
        <linearGradient x1="51.7708752%" y1="29.8361099%" x2="45.9141839%" y2="87.1154367%" id="linearGradient-19">
            <stop stop-color="#74787C" offset="0%"></stop>
            <stop stop-color="#E4E8EB" offset="9.78197272%"></stop>
            <stop stop-color="#74787C" offset="37.4221386%"></stop>
            <stop stop-color="#37393B" offset="86.4977293%"></stop>
            <stop stop-color="#313437" offset="100%"></stop>
        </linearGradient>
        <linearGradient x1="55.3453393%" y1="10.4458697%" x2="36.2630908%" y2="87.1154367%" id="linearGradient-20">
            <stop stop-color="#74787C" offset="0%"></stop>
            <stop stop-color="#E4E8EB" offset="9.78197272%"></stop>
            <stop stop-color="#74787C" offset="37.4221386%"></stop>
            <stop stop-color="#37393B" offset="77.1735819%"></stop>
            <stop stop-color="#313437" offset="100%"></stop>
        </linearGradient>
        <linearGradient x1="60.6087264%" y1="30.036743%" x2="18.6893631%" y2="95.1371946%" id="linearGradient-21">
            <stop stop-color="#74787C" offset="0%"></stop>
            <stop stop-color="#606468" offset="25.5175667%"></stop>
            <stop stop-color="#E4E8EB" offset="70.441317%"></stop>
            <stop stop-color="#37393B" offset="87.5725187%"></stop>
            <stop stop-color="#313437" offset="100%"></stop>
        </linearGradient>
        <radialGradient cx="38.5455277%" cy="32.9365489%" fx="38.5455277%" fy="32.9365489%" r="92.2417436%" gradientTransform="translate(0.385455,0.329365),scale(0.800000,1.000000),rotate(38.048305),scale(1.000000,1.033210),translate(-0.385455,-0.329365)" id="radialGradient-22">
            <stop stop-color="#707174" offset="0%"></stop>
            <stop stop-color="#252628" offset="100%"></stop>
        </radialGradient>
        <linearGradient x1="48.008345%" y1="42.7856352%" x2="40.3022297%" y2="51.6013865%" id="linearGradient-23">
            <stop stop-color="#B8BAC0" offset="0%"></stop>
            <stop stop-color="#D4D8DE" offset="30.2014899%"></stop>
            <stop stop-color="#636467" offset="87.2729698%"></stop>
            <stop stop-color="#A9ACB0" offset="100%"></stop>
        </linearGradient>
        <linearGradient x1="62.6262358%" y1="17.8375781%" x2="27.8348336%" y2="70.0715196%" id="linearGradient-24">
            <stop stop-color="#B8BAC0" offset="0%"></stop>
            <stop stop-color="#D4D8DE" offset="30.2014899%"></stop>
            <stop stop-color="#636467" offset="87.2729698%"></stop>
            <stop stop-color="#A9ACB0" offset="100%"></stop>
        </linearGradient>
        <linearGradient x1="60.7249634%" y1="30.036743%" x2="18.3463007%" y2="95.1371946%" id="linearGradient-25">
            <stop stop-color="#74787C" offset="0%"></stop>
            <stop stop-color="#606468" offset="25.5175667%"></stop>
            <stop stop-color="#E4E8EB" offset="70.441317%"></stop>
            <stop stop-color="#37393B" offset="87.5725187%"></stop>
            <stop stop-color="#313437" offset="100%"></stop>
        </linearGradient>
        <linearGradient x1="5.32907052e-13%" y1="44.407952%" x2="69.5457158%" y2="50%" id="linearGradient-26">
            <stop stop-color="#A1A5AC" offset="0%"></stop>
            <stop stop-color="#D6D9DE" offset="24.222151%"></stop>
            <stop stop-color="#505255" offset="81.2370549%"></stop>
            <stop stop-color="#898E95" offset="100%"></stop>
        </linearGradient>
        <linearGradient x1="78.3500385%" y1="50%" x2="1.77635684e-13%" y2="50%" id="linearGradient-27">
            <stop stop-color="#2F62AE" offset="0%"></stop>
            <stop stop-color="#1F4988" offset="37.0202069%"></stop>
            <stop stop-color="#79A7EC" offset="73.7787187%"></stop>
            <stop stop-color="#2F62AE" offset="100%"></stop>
        </linearGradient>
        <linearGradient x1="78.3500385%" y1="50%" x2="1.77635684e-13%" y2="50%" id="linearGradient-28">
            <stop stop-color="#2F62AE" offset="0%"></stop>
            <stop stop-color="#1F4988" offset="37.0202069%"></stop>
            <stop stop-color="#79A7EC" offset="73.7787187%"></stop>
            <stop stop-color="#2F62AE" offset="100%"></stop>
        </linearGradient>
        <linearGradient x1="100%" y1="64.3968022%" x2="0%" y2="64.3968022%" id="linearGradient-29">
            <stop stop-color="#9C9898" offset="0%"></stop>
            <stop stop-color="#635F5F" offset="100%"></stop>
        </linearGradient>
        <linearGradient x1="76.4277547%" y1="9.31006937%" x2="20.1158513%" y2="84.1499772%" id="linearGradient-30">
            <stop stop-color="#686B6F" offset="0%"></stop>
            <stop stop-color="#AAACAE" offset="29.9689796%"></stop>
            <stop stop-color="#37383A" offset="87.5802178%"></stop>
            <stop stop-color="#686B6F" offset="100%"></stop>
        </linearGradient>
        <linearGradient x1="50%" y1="0%" x2="50%" y2="100%" id="linearGradient-31">
            <stop stop-color="#4F5152" offset="0%"></stop>
            <stop stop-color="#87898A" offset="100%"></stop>
        </linearGradient>
        <linearGradient x1="75.2746912%" y1="9.31006937%" x2="21.41972%" y2="84.1499772%" id="linearGradient-32">
            <stop stop-color="#686B6F" offset="0%"></stop>
            <stop stop-color="#AAACAE" offset="29.9689796%"></stop>
            <stop stop-color="#37383A" offset="87.5802178%"></stop>
            <stop stop-color="#686B6F" offset="100%"></stop>
        </linearGradient>
        <linearGradient x1="100%" y1="50%" x2="0%" y2="50%" id="linearGradient-33">
            <stop stop-color="#87898A" offset="0%"></stop>
            <stop stop-color="#4F5152" offset="100%"></stop>
        </linearGradient>
    </defs>
    <g id="-" stroke="none" stroke-width="1" fill="none" fill-rule="evenodd">
        <g id="画板" transform="translate(-211.000000, -1603.000000)">
            <g id="操作机" transform="translate(211.500000, 1603.000000)">
                <polygon id="路径-159" fill="#222222" points="371.069983 227.420568 234.269985 147.620569 234.649997 86.8205778 371.449995 165.525722"></polygon>
                <g id="编组-68" transform="translate(27.550000, 0.000000)">
                    <polygon id="路径-139" fill="#4C4D4F" points="36.4799974 217.758826 36.4799974 175.778249 72.9599947 84.3599939 206.719985 7.02057877 206.719985 147.620569 60.7999956 232.018245 60.7999956 217.939405 48.6399965 210.738247"></polygon>
                    <polygon id="路径-140" stroke="#979797" stroke-width="0.759999945" fill="#A7ABAF" points="24.3199982 224.779405 48.6399965 210.738247 60.7999956 217.758826 60.7999956 231.799983 12.1599991 259.919981 12.1599991 245.878824"></polygon>
                    <polygon id="路径-141" stroke="#979797" stroke-width="0.759999945" fill="#D8D8D8" points="12.1599991 259.919981 0 252.899402 0 238.858245 12.1599991 245.878824"></polygon>
                    <polygon id="路径-142" fill="#A2A5A8" points="12.1599991 245.878824 0 238.858245 12.1599991 217.758826 24.3199982 224.779405"></polygon>
                    <polygon id="路径-143" fill="#DFE1E4" points="24.3199982 224.779405 12.1599991 217.758826 36.4799974 203.679985 48.6399965 210.700564"></polygon>
                    <polygon id="路径-146" fill="#DFE1E4" points="72.9599947 84.3599939 206.719985 7.02057877 194.559986 0 60.7999956 77.3394151"></polygon>
                    <polygon id="路径-145" fill="#A2A5A8" points="24.3199982 168.719988 36.4799974 175.740567 72.9599947 84.3599939 60.7999956 77.3394151"></polygon>
                    <polygon id="路径-144" fill="#74787C" points="36.4799974 217.758826 24.3199982 210.738247 24.3199982 168.719988 36.4799974 175.740567"></polygon>
                </g>
                <g id="编组-67" transform="translate(38.881942, 72.124921)">
                    <g id="编组-62">
                        <path d="M79.8245997,2.19927082 C82.6428011,0.302332476 85.3531842,-0.0591467664 87.3029369,0.962777906 L87.3576276,0.958367352 L91.6398217,2.90569127 L90.2129275,7.89606117 C90.0733949,10.0434755 89.3952031,12.3566926 88.3109127,14.5442975 L77.2281686,53.29972 L72.9186162,61.6670374 L61.8408525,68.198954 L7.1016404,103.54027 L3.51945287,101.725526 C1.82885142,101.115093 0.594928151,99.5898424 0.163241159,97.2302634 C-0.0193342683,96.2323155 -0.0451924676,95.1573779 0.0678172472,94.0446897 L0.0679264018,59.5341781 C-0.518143028,54.3711641 2.74656168,47.479405 7.60663238,43.817079 C8.18788485,43.3790739 8.76670155,43.0062923 9.33743165,42.6974181 L9.36651719,42.6508535 L74.8937041,4.81930529 Z" id="形状结合" fill="url(#linearGradient-1)"></path>
                        <path d="M85.1818546,3.51024515 C89.6181114,1.06555321 93.5831922,2.47565249 94.4337669,7.12484975 C94.5488569,7.75392625 94.6016729,8.41359586 94.5966857,9.09402965 L94.6085029,9.10283195 L94.3053727,47.8758432 L94.2681654,47.94869 C94.2474382,50.886499 92.5055569,54.3826864 89.9656211,56.2966653 C89.3974639,56.7248025 88.8309273,57.0424583 88.2820146,57.2537467 L78.9180566,62.7750771 L78.918,71.1830184 L78.945116,71.3047812 C79.5614845,74.3559307 77.8067,78.5462165 75.0017682,80.812341 L74.7656213,80.996665 C73.7315792,81.7758717 72.7029052,82.1891225 71.7760744,82.2612195 L12.1063201,103.280709 C8.13335203,104.929178 4.74220818,103.388057 3.96324111,99.1302634 C3.78066568,98.1323154 3.75480748,97.0573778 3.8678172,95.9446897 L3.86792635,61.434178 C3.28185692,56.271164 6.54656163,49.379405 11.4066323,45.717079 C11.9878848,45.2790738 12.5667015,44.9062923 13.1374316,44.5974181 L13.1665171,44.5508535 L78.9180566,6.80224168 L85.1508757,3.49179636 Z" id="形状结合" fill="#C2C6CB"></path>
                    </g>
                    <path d="M77.2287841,28.6069667 C83.5718917,28.6069667 90.6422857,24.7616856 93.0209511,20.0182909 C95.3996164,15.2748963 92.185801,11.4296151 85.8426933,11.4296151 C79.4995857,11.4296151 72.4291917,15.2748963 70.0505263,20.0182909 C67.671861,24.7616856 70.8856764,28.6069667 77.2287841,28.6069667 Z" id="椭圆形" fill="url(#linearGradient-2)" transform="translate(81.535739, 20.018291) rotate(-37.000000) translate(-81.535739, -20.018291) "></path>
                    <path d="M84.4919799,53.2750772 C88.1754638,53.2750772 92.2812876,50.9357651 93.6625941,48.0500773 C95.0439005,45.1643895 93.177617,42.8250774 89.4941331,42.8250774 C85.8106492,42.8250774 81.7048254,45.1643895 80.3235189,48.0500773 C78.9422124,50.9357651 80.808496,53.2750772 84.4919799,53.2750772 Z" id="椭圆形" fill="url(#linearGradient-3)" transform="translate(86.993056, 48.050077) rotate(-37.000000) translate(-86.993056, -48.050077) "></path>
                </g>
                <g id="编组-66" transform="translate(0.000000, 113.999999)">
                    <path d="M52.7663232,50.9486991 C58.47512,50.9486991 64.8384744,47.4879461 66.9792732,43.2188911 C69.1200719,38.949836 66.2276381,35.489083 60.5188414,35.489083 C54.8100447,35.489083 48.4466902,38.949836 46.3058915,43.2188911 C44.1650927,47.4879461 47.0575265,50.9486991 52.7663232,50.9486991 Z" id="椭圆形" fill="url(#linearGradient-4)" transform="translate(56.642582, 43.218891) rotate(-37.000000) translate(-56.642582, -43.218891) "></path>
                    <g id="编组-46" transform="translate(50.771669, 35.150000)">
                        <path d="M5.47677484,1.62618696 C7.46303072,0.129435802 9.40978219,-0.309492437 10.8820609,0.208087975 L10.9118194,0.15827756 L11.2946668,0.384572104 C11.4211757,0.449014938 11.5433232,0.52145286 11.6607718,0.601807242 L27.3529606,9.89266703 L17.687661,25.6591099 L1.38654274,16.0471014 L1.42681169,15.979428 C0.78447153,15.398043 0.323804868,14.5351471 0.117533624,13.407679 C-0.570037188,9.64945217 1.82937684,4.37469851 5.47677484,1.62618696 Z" id="形状结合" fill="url(#linearGradient-5)"></path>
                        <path d="M18.90864,23.6725978 C23.4756771,23.6725978 28.5663603,20.9039957 30.2789992,17.4887518 C31.9916382,14.0735079 29.6776912,11.3049057 25.1106541,11.3049057 C20.543617,11.3049057 15.4529338,14.0735079 13.7402949,17.4887518 C12.027656,20.9039957 14.3416029,23.6725978 18.90864,23.6725978 Z" id="椭圆形" stroke="#979797" stroke-width="0.949999988" fill="#D8D8D8" transform="translate(22.009647, 17.488752) rotate(-37.000000) translate(-22.009647, -17.488752) "></path>
                    </g>
                    <g id="编组-69" transform="translate(62.171669, 39.230067)">
                        <g id="编组-64" transform="translate(19.200000, 85.469932) scale(-1, 1) translate(-19.200000, -85.469932) translate(3.200000, 43.469932)">
                            <g id="编组-63" transform="translate(16.326070, 41.930274) scale(-1, 1) translate(-16.326070, -41.930274) translate(0.826070, 0.430274)">
                                <path d="M0.426070087,11.6455083 L13.4255476,18.2760998 L14.6856574,60.0699504 C15.7184538,60.5340163 16.4275529,60.9158029 16.42586,61.0805959 C16.4060529,63.0087568 15.8511899,65.1277959 14.8969696,67.1394002 L15.3442444,82.000958 L3.37369048,75.2008147 C1.88847128,74.6843488 0.803182362,73.3595787 0.426070087,71.2983023 C0.276772378,70.4822487 0.248694666,69.606644 0.328777476,68.7001974 L0.28538624,68.5911143 L0.426070087,11.6455083 Z" id="形状结合" fill="url(#linearGradient-6)"></path>
                                <path d="M29.5400088,0.0425543986 L29.4479215,67.3812191 C29.852436,71.8217257 27.0513326,77.6532818 22.9107675,80.7734214 C18.5313655,84.0735375 14.3119095,83.0907278 13.4863487,78.5782546 C13.3372708,77.7634023 13.3090562,76.8891742 13.3887031,75.9841529 L13.390009,9.20384697 L29.5400088,0.0425543986 Z" id="形状结合" fill="url(#linearGradient-7)"></path>
                                <path d="M19.5156616,76.449999 C22.9535799,76.449999 26.7856821,74.1106869 28.0749015,71.2249991 C29.3641208,68.3393113 27.6222562,65.9999992 24.1843379,65.9999992 C20.7464196,65.9999992 16.9143174,68.3393113 15.625098,71.2249991 C14.3358786,74.1106869 16.0777433,76.449999 19.5156616,76.449999 Z" id="椭圆形" stroke="#979797" stroke-width="0.949999988" fill="#D8D8D8" transform="translate(21.850000, 71.224999) rotate(-37.000000) translate(-21.850000, -71.224999) "></path>
                            </g>
                        </g>
                        <g id="编组-64" transform="translate(0.000000, 0.400000)">
                            <g id="编组-63" transform="translate(17.626070, 37.180274) scale(-1, 1) translate(-17.626070, -37.180274) translate(0.626070, 0.680274)">
                                <path d="M0.43902577,37.257605 L10.7175767,42.7790914 C13.0813344,42.3327005 15.0397473,43.316309 15.9149638,45.5720296 L17.2255475,46.2760999 L19.1442444,72.0009586 L2.85811213,62.5131861 L2.83407268,62.454427 C1.61527979,61.8301885 0.734879809,60.5865549 0.402991001,58.7724677 C0.25594622,57.9687285 0.226490579,57.1072218 0.302146933,56.2153769 L0.298341923,56.2032114 L0.43902577,37.257605 Z" id="形状结合" fill="#97999C"></path>
                                <path d="M18.6829559,1.74143124 C20.5794808,0.361212427 23.5093202,0.690266114 26.5113527,2.95245985 C30.783183,6.1715149 33.6855177,12.1627831 33.3275186,16.7695387 L33.3275186,16.7695387 L33.3400088,16.7835027 L33.3400088,38.9908055 L33.334008,38.994726 L33.2525203,57.4333792 C33.6305072,61.8672952 30.8351402,67.6654842 26.7107674,70.773422 C22.3313655,74.0735381 18.1119095,73.0907284 17.2863486,68.5782552 C17.1372707,67.7634029 17.1090562,66.8891748 17.188703,65.9841535 L17.190009,48.4908054 L16.5760699,29.4911063 L3.15100799,10.910736 Z" id="形状结合" fill="url(#linearGradient-8)"></path>
                            </g>
                        </g>
                        <g id="编组-63" transform="translate(17.268748, 11.000000)" fill="#97999C">
                            <path d="M6.99596876,2.53273371 C11.5552165,-0.902905926 15.94795,0.120264121 16.8074136,4.81804797 C16.9463602,5.57752302 16.9844546,6.38654322 16.9314097,7.22375599 L16.9312515,29.0713802 L0.16731265,38.5710794 L0.16731265,16.3637766 L0.180269382,16.3557915 C-0.180707602,11.7482421 2.72229008,5.75318159 6.99596876,2.53273371 Z" id="形状结合"></path>
                        </g>
                        <path d="M7.49913861,67.1699317 C10.4459257,67.1699317 13.7305848,65.255949 14.8356299,62.8949317 C15.9406751,60.5339144 14.4476483,58.6199318 11.5008612,58.6199318 C8.55407404,58.6199318 5.26941499,60.5339144 4.16436982,62.8949317 C3.05932465,65.255949 4.5523515,67.1699317 7.49913861,67.1699317 Z" id="椭圆形" fill="url(#radialGradient-9)" transform="translate(9.500000, 62.894932) scale(-1, 1) rotate(-37.000000) translate(-9.500000, -62.894932) "></path>
                    </g>
                    <g id="编组-71" transform="translate(0.421669, 0.000000)">
                        <g id="编组-82" transform="translate(97.849999, 0.000000)">
                            <polygon id="路径-21" fill="#313131" points="48.4557881 115.891914 7.46735997e-14 87.8749989 0 149.399274 48.4557881 177.40967"></polygon>
                            <polygon id="路径-87" fill="#5D5D5D" points="48.4557881 177.416189 200.455786 89.5411904 200.455786 28.0169152 48.4557881 115.891914"></polygon>
                            <polygon id="路径-22" fill="#626262" points="48.4557881 115.891914 1.04627417e-13 87.8749989 151.999998 -1.05858095e-13 200.455786 28.0169152"></polygon>
                        </g>
                        <g id="编组-46" transform="translate(107.930002, 139.799999) scale(-1, 1) translate(-107.930002, -139.799999) translate(64.930002, 98.799999)">
                            <path d="M26.8819075,7.58725824 C35.3984559,1.16022632 43.7315498,-0.347210426 49.6934472,2.55462874 L49.7494919,2.46076272 L63.3276896,10.2082909 L58.3790364,18.5348734 C59.119747,33.0312612 50.0188385,51.5238399 36.7392437,61.5453406 C34.6468643,63.1243593 32.5655583,64.4064283 30.5277691,65.3991153 L25.8363266,73.2910927 L14.4050103,66.7986576 C13.5736411,66.4340984 12.7854468,65.9869982 12.0460052,65.4586579 L12.0400003,65.4545628 C8.87517962,63.1903691 6.60435153,59.4371786 5.66530254,54.2969122 C2.94327796,39.396804 12.4422785,18.4841835 26.8819075,7.58725824 Z" id="形状结合" fill="url(#linearGradient-10)"></path>
                            <path d="M30.7978266,65.3593916 C48.9353802,65.3756796 69.1426596,54.4042841 75.9320484,40.8540756 C82.7214372,27.3038672 73.521932,16.3060342 55.3843784,16.2897099 C37.2468248,16.2734219 17.0395454,27.2448174 10.2501567,40.7950258 C3.46076785,54.3452343 12.6602731,65.3430673 30.7978266,65.3593916 Z" id="椭圆形" fill="url(#linearGradient-11)" transform="translate(43.091103, 40.824551) rotate(-37.000000) translate(-43.091103, -40.824551) "></path>
                        </g>
                        <g id="编组-46" transform="translate(98.310002, 143.579999) scale(-1, 1) translate(-98.310002, -143.579999) translate(63.810002, 110.579999)">
                            <path d="M23.8055263,7.96980666 C30.6186704,2.8282525 37.2850551,1.62226515 42.0545595,3.94360621 L42.0995941,3.86861018 L49.9331508,7.9533367 L48.0093709,11.1909113 C48.2779172,11.9946611 48.4976369,12.8541732 48.6646797,13.7685495 C50.8422994,25.6886362 43.2430988,42.4187328 31.6913954,51.1362732 C28.1224659,53.8295737 24.5938068,55.4429629 21.3569769,56.0351201 L19.9400599,58.4195789 L14.5711881,55.6337109 C13.6271806,55.3012499 12.7447746,54.8444325 11.9354028,54.2659255 L11.9320004,54.263651 L11.822762,54.1842815 C9.3478978,52.365346 7.57263278,49.3903598 6.83224208,45.3375304 C4.65462239,33.4174436 12.253823,16.687347 23.8055263,7.96980666 Z" id="形状结合" fill="url(#linearGradient-12)"></path>
                            <path d="M24.8002847,52.5405454 C39.3103277,52.5535324 55.4761515,43.7764159 60.9076626,32.936249 C66.3391737,22.0960821 58.9795695,13.2978156 44.4695264,13.2847127 C29.9594833,13.2717257 13.7936596,22.0488423 8.36214845,32.8890092 C2.93063733,43.729176 10.2902416,52.5274426 24.8002847,52.5405454 Z" id="椭圆形" fill="url(#linearGradient-13)" transform="translate(34.634906, 32.912629) rotate(-37.000000) translate(-34.634906, -32.912629) "></path>
                        </g>
                        <g id="编组-46" transform="translate(81.249999, 153.249998) scale(-1, 1) translate(-81.249999, -153.249998) translate(53.249999, 128.249998)">
                            <path d="M11.1011346,3.30099561 C15.428418,0.035401695 19.6631971,-0.749556881 22.7107306,0.690757241 L22.7345231,0.651715485 L44.3596733,12.9389551 L24.7685976,44.9433532 L4.60681238,33.5695917 C4.27086126,33.4153651 3.9490743,33.2343839 3.64289289,33.0269843 L3.42726684,32.9045354 L3.4400268,32.8840218 C1.85201287,31.7204293 0.712868167,29.814433 0.238234779,27.2163341 C-1.15544156,19.5874801 3.70804586,8.88022037 11.1011346,3.30099561 Z" id="形状结合" fill="url(#linearGradient-14)"></path>
                            <path d="M27.1144027,41.0518414 C36.4008285,41.0601808 46.7469536,35.4428273 50.2231201,28.5051218 C53.6992865,21.5674164 48.9891407,15.9365269 39.7027149,15.9281688 C30.4162892,15.9198294 20.070164,21.5371829 16.5939975,28.4748883 C13.1178311,35.4125938 17.8279769,41.0434833 27.1144027,41.0518414 Z" id="椭圆形" stroke="#979797" stroke-width="0.949999988" fill="#D8D8D8" transform="translate(33.408559, 28.490005) rotate(-37.000000) translate(-33.408559, -28.490005) "></path>
                        </g>
                        <g id="编组-77" transform="translate(0.421669, 119.699998)">
                            <g id="编组-73" transform="translate(0.000000, 63.855065)">
                                <polygon id="路径-150" fill="#74787C" points="0 33.7439956 0 44.9769209 29.1839962 61.8564553 29.1839962 50.5933836"></polygon>
                                <polygon id="路径-151" fill="#C2C6CB" points="29.1839962 50.5933836 48.6399936 39.3755314 68.095991 16.8644612 68.095991 28.0973866 48.6399936 50.6084568 29.1839962 62.1453821"></polygon>
                                <polygon id="路径-152" fill="#D2D3D5" points="0 33.7439956 29.1839962 50.5933836 48.6399936 39.3604582 19.4559974 22.4809239"></polygon>
                                <polygon id="路径-157" fill="#C2C6CB" points="48.6399936 39.3604582 68.095991 16.8644612 38.9119949 -6.91215882e-14 19.4559974 22.4809239"></polygon>
                            </g>
                            <g id="编组-75" transform="translate(37.911995, 0.000000)">
                                <polygon id="路径-156" fill="#828282" points="30.1839962 39.3755314 30.1839962 28.142606 1 11.2630717 1 22.5110702"></polygon>
                                <path d="M30.1839962,16.8795344 L58.8844497,22.2946508 L58.6839962,22.4135344 L58.905546,22.2864764 L58.905546,37.7703809 L30.1839962,54.3664208 L30.1839962,16.8795344 Z" id="形状结合" fill="#C2C6CB"></path>
                                <g id="编组-78" transform="translate(39.303995, 27.534606)">
                                    <path d="M3.40777084,1.01184962 C4.64344376,0.080703284 5.85454489,-0.192476 6.77057149,0.129305367 L6.78957619,0.0984838104 L7.09415139,0.274629577 C7.11029456,0.283608705 7.12631634,0.292804981 7.14221479,0.302217956 L11.1751952,2.6500437 L5.27873798,12.5347865 L0.862737664,9.98486259 L0.888098321,9.9430302 C0.488261142,9.58127663 0.201511158,9.04426916 0.0731320292,8.34255542 C-0.354689788,6.00410327 1.13827886,2.72203449 3.40777084,1.01184962 Z" id="形状结合" fill="url(#linearGradient-15)"></path>
                                    <path d="M6.36217409,11.4083046 C9.20388593,11.4083046 12.371422,9.68561892 13.4370639,7.5605784 C14.5027059,5.43553788 13.0629168,3.71285216 10.2212049,3.71285216 C7.37949309,3.71285216 4.21195701,5.43553788 3.14631507,7.5605784 C2.08067313,9.68561892 3.52046226,11.4083046 6.36217409,11.4083046 Z" id="椭圆形" fill="url(#linearGradient-16)" transform="translate(8.291690, 7.560578) rotate(-37.000000) translate(-8.291690, -7.560578) "></path>
                                </g>
                                <polygon id="路径-155" fill="#A6A9AD" points="30.1839962 16.8795344 0.2206857 0 30.1839962 5.61646268 58.8844497 22.2864764"></polygon>
                            </g>
                            <polygon id="路径-156" fill="#828282" points="68.095991 80.7195259 68.095991 69.1675275 38.9119949 52.2879931 38.9119949 63.8550647"></polygon>
                            <path d="M68.095991,54.1227481 L96.8175409,37.4864744 L96.7447641,45.6276885 L96.6719873,53.1609026 L96.595991,53.2024744 L68.095991,91.6635194 L68.095991,54.1227481 Z" id="形状结合" fill="#C2C6CB"></path>
                            <g id="编组-78" transform="translate(77.215990, 51.246603)">
                                <path d="M3.40777084,1.01184962 C4.64344376,0.080703284 5.85454489,-0.192476 6.77057149,0.129305367 L6.78957619,0.0984838104 L7.09415139,0.274629577 C7.11029456,0.283608705 7.12631634,0.292804981 7.14221479,0.302217956 L11.1751952,2.6500437 L5.27873798,12.5347865 L0.862737664,9.98486259 L0.888098321,9.9430302 C0.488261142,9.58127663 0.201511158,9.04426916 0.0731320292,8.34255542 C-0.354689788,6.00410327 1.13827886,2.72203449 3.40777084,1.01184962 Z" id="形状结合" fill="url(#linearGradient-15)"></path>
                                <path d="M6.36217409,11.4083046 C9.20388593,11.4083046 12.371422,9.68561892 13.4370639,7.5605784 C14.5027059,5.43553788 13.0629168,3.71285216 10.2212049,3.71285216 C7.37949309,3.71285216 4.21195701,5.43553788 3.14631507,7.5605784 C2.08067313,9.68561892 3.52046226,11.4083046 6.36217409,11.4083046 Z" id="椭圆形" fill="url(#linearGradient-16)" transform="translate(8.291690, 7.560578) rotate(-37.000000) translate(-8.291690, -7.560578) "></path>
                            </g>
                            <polygon id="路径-161" fill="#828282" points="68.095991 69.1675275 68.095991 39.3755314 38.9119949 22.495997 38.9119949 52.6070662"></polygon>
                            <g id="编组-74">
                                <polygon id="路径-150" fill="#74787C" points="0 11.2630717 0 22.495997 29.1839962 39.3755314 29.1839962 28.1124597"></polygon>
                                <polygon id="路径-151" fill="#C2C6CB" points="29.1839962 28.1124597 48.6399936 16.8795344 68.095991 16.8795344 68.095991 28.1124597 48.6399936 28.1124597 29.1839962 39.3755314"></polygon>
                                <polygon id="路径-152" fill="#D2D3D5" points="0 11.2630717 29.1839962 28.1124597 48.6399936 16.8795344 19.4559974 -6.91215882e-14"></polygon>
                                <polygon id="路径-153" fill="#D2D3D5" points="48.6399936 16.8795344 19.4559974 1.38243176e-13 38.1326806 1.38243176e-13 68.095991 16.8795344"></polygon>
                            </g>
                        </g>
                    </g>
                    <g id="编组-46" transform="translate(81.671668, 53.199999)">
                        <path d="M5.53642755,1.75147168 C7.67895505,0.136961409 9.77551747,-0.246726462 11.2801919,0.473249905 L11.3052765,0.432333537 L69.2760692,33.9833942 L59.6107696,49.7498371 L2.47994121,16.7261901 C1.32118542,16.2604613 0.478238386,15.1784989 0.177186326,13.5329637 C-0.510384486,9.77473689 1.88902954,4.49998323 5.53642755,1.75147168 Z" id="形状结合" fill="url(#linearGradient-17)"></path>
                        <path d="M61.3719471,48.203393 C65.9389842,48.203393 71.0296674,45.4347909 72.7423063,42.019547 C74.4549452,38.6043031 72.1409983,35.835701 67.5739612,35.835701 C63.0069241,35.835701 57.9162408,38.6043031 56.2036019,42.019547 C54.490963,45.4347909 56.8049099,48.203393 61.3719471,48.203393 Z" id="椭圆形" stroke="#979797" stroke-width="0.949999988" fill="#D8D8D8" transform="translate(64.472954, 42.019547) rotate(-37.000000) translate(-64.472954, -42.019547) "></path>
                    </g>
                    <g id="编组-46" transform="translate(85.499999, 79.799999)">
                        <path d="M3.62185631,1.05088295 C4.90756403,0.0820326876 6.1656845,-0.148104368 7.06851775,0.284142821 L7.08316549,0.259400107 L62.8568562,32.7514478 L57.0576768,42.2113129 L1.77268571,10.0295005 C1.08530397,9.74672797 0.585617154,9.09985181 0.406311771,8.11977776 C-0.00623069152,5.86484179 1.43341764,2.69998977 3.62185631,1.05088295 Z" id="形状结合" fill="url(#linearGradient-18)"></path>
                        <path d="M58.0231658,41.272034 C60.7633879,41.272034 63.8177976,39.6108727 64.8453809,37.5617265 C65.8729642,35.5125803 64.4845961,33.8514191 61.744374,33.8514191 C59.0041519,33.8514191 55.9497422,35.5125803 54.9221589,37.5617265 C53.8945756,39.6108727 55.2829437,41.272034 58.0231658,41.272034 Z" id="椭圆形" stroke="#979797" stroke-width="0.949999988" fill="#D8D8D8" transform="translate(59.883770, 37.561727) rotate(-37.000000) translate(-59.883770, -37.561727) "></path>
                    </g>
                    <g id="编组-65" transform="translate(136.271668, 83.530066)">
                        <g id="编组-64" transform="translate(17.300000, 54.469932) scale(-1, 1) translate(-17.300000, -54.469932) translate(1.300000, 12.469932)">
                            <g id="编组-63" transform="translate(16.326070, 41.930274) scale(-1, 1) translate(-16.326070, -41.930274) translate(0.826070, 0.430274)">
                                <path d="M0.426070087,11.6455083 L13.4255476,18.2760998 L14.6856574,60.0699504 C15.7184538,60.5340163 16.4275529,60.9158029 16.42586,61.0805959 C16.4060529,63.0087568 15.8511899,65.1277959 14.8969696,67.1394002 L15.3442444,82.000958 L3.37369048,75.2008147 C1.88847128,74.6843488 0.803182362,73.3595787 0.426070087,71.2983023 C0.276772378,70.4822487 0.248694666,69.606644 0.328777476,68.7001974 L0.28538624,68.5911143 L0.426070087,11.6455083 Z" id="形状结合" fill="url(#linearGradient-19)"></path>
                                <path d="M29.5400088,0.0425543986 L29.4479215,67.3812191 C29.852436,71.8217257 27.0513326,77.6532818 22.9107675,80.7734214 C18.5313655,84.0735375 14.3119095,83.0907278 13.4863487,78.5782546 C13.3372708,77.7634023 13.3090562,76.8891742 13.3887031,75.9841529 L13.390009,9.20384697 L29.5400088,0.0425543986 Z" id="形状结合" fill="url(#linearGradient-7)"></path>
                                <path d="M19.5156616,76.449999 C22.9535799,76.449999 26.7856821,74.1106869 28.0749015,71.2249991 C29.3641208,68.3393113 27.6222562,65.9999992 24.1843379,65.9999992 C20.7464196,65.9999992 16.9143174,68.3393113 15.625098,71.2249991 C14.3358786,74.1106869 16.0777433,76.449999 19.5156616,76.449999 Z" id="椭圆形" stroke="#979797" stroke-width="0.949999988" fill="#D8D8D8" transform="translate(21.850000, 71.224999) rotate(-37.000000) translate(-21.850000, -71.224999) "></path>
                            </g>
                        </g>
                        <g id="编组-70" transform="translate(0.000000, 0.069932)">
                            <path d="M14.6743658,0.821705222 L30.2063136,9.99100994 L16.7812517,28.5713803 L16.1673126,47.5710794 L16.1686186,65.0644275 C16.2482655,65.9694488 16.2200509,66.8436769 16.070973,67.6585291 C15.2454122,72.1710024 11.0259561,73.1538121 6.64655421,69.853696 C2.52218144,66.7457582 -0.273185539,60.9475692 0.104801367,56.5136531 L0.104801367,56.5136531 L0.023,38.075 L0.0173128523,38.0710795 L0.0173128523,15.8637767 L0.0298030542,15.8498127 C-0.328196081,11.243057 2.57413863,5.25178888 6.84596896,2.03273383 C9.84800144,-0.229459909 12.7778408,-0.558513597 14.6743658,0.821705222 Z" id="形状结合" fill="url(#linearGradient-20)"></path>
                            <path d="M5.75537221,64.8894441 C8.70215932,64.8894441 11.9868184,62.9754614 13.0918635,60.6144441 C14.1969087,58.2534269 12.7038819,56.3394442 9.75709476,56.3394442 C6.81030764,56.3394442 3.52564859,58.2534269 2.42060342,60.6144441 C1.31555826,62.9754614 2.8085851,64.8894441 5.75537221,64.8894441 Z" id="椭圆形" fill="url(#radialGradient-9)" transform="translate(7.756233, 60.614444) scale(-1, 1) rotate(-37.000000) translate(-7.756233, -60.614444) "></path>
                            <path d="M15.2354523,70.4528789 L15.2299444,70.4602049 C14.9529276,70.8495331 14.6173112,71.0430347 14.223095,71.0407098 L14.223095,71.0407098 L15.2354523,70.4528789 Z M32.8074136,13.818048 C32.9463602,14.577523 32.9844546,15.3865432 32.9314097,16.223756 L32.9312515,38.0713802 L33.0589797,55.2834854 L33.0551747,55.2956509 C33.130831,56.1874958 33.1013754,57.0490024 32.9543306,57.8527417 C32.6224418,59.6668289 31.7420418,60.9104625 30.5232489,61.534701 L30.5232489,61.534701 L30.4992095,61.5934601 L15.2354523,70.4528789 L15.3040415,70.3491693 C15.9094103,69.3834125 16.2120947,67.406155 16.2120947,64.4173969 L16.2120947,64.4173969 L16.2114309,63.1631664 C16.2070055,58.8228683 16.1804532,52.8872708 16.1317741,45.3563739 L16.1317741,45.3563739 L16.167095,45.3369999 L16.1673126,25.3637766 L16.1802694,25.3557915 C15.8192924,20.7482421 18.7222901,14.7531816 22.9959688,11.5327337 C27.5552165,8.09709407 31.94795,9.12026412 32.8074136,13.818048 Z" id="形状结合" fill="#97999C"></path>
                        </g>
                    </g>
                    <g id="编组-61" transform="translate(152.421668, 105.449999)">
                        <path d="M57.9499993,0 L57.9499993,16.8088293 L10.934802,67.7644397 C9.68090359,70.9840347 8.56828223,72.7792216 7.59693786,73.1500002 C6.67547013,73.5017401 4.92655904,72.7019716 2.35020458,70.7506947 C1.24068682,70.1380257 0.44146243,68.9697349 0.134506619,67.2884082 C-0.551974393,63.5282617 1.45044787,58.4443789 4.74426955,55.1154032 L4.7469379,55.1048917 L57.9499993,0 Z" id="形状结合" fill="url(#linearGradient-21)"></path>
                        <path d="M60.7999992,1.89999998 L60.7999992,18.7088293 L13.7848019,69.6644397 L13.776802,69.6497779 C13.2121214,70.2517195 12.6063877,70.8023685 11.9671597,71.2850738 C7.79303826,74.4370943 3.77136925,73.4983875 2.98450658,69.1884082 C2.29768109,65.4263748 4.30245817,60.3392763 7.59922907,57.010393 L7.59693786,57.0048916 L60.7999992,1.89999998 Z" id="形状结合" stroke="#979797" stroke-width="0.949999988" fill="#97999C"></path>
                        <path d="M7.83261549,69.3499991 C10.2882714,69.3499991 13.0254873,67.6486812 13.9463583,65.5499992 C14.8672292,63.4513172 13.6230402,61.7499992 11.1673843,61.7499992 C8.71172835,61.7499992 5.97451248,63.4513172 5.0536415,65.5499992 C4.13277053,67.6486812 5.37695957,69.3499991 7.83261549,69.3499991 Z" id="椭圆形" fill="url(#radialGradient-22)" transform="translate(9.500000, 65.549999) rotate(-37.000000) translate(-9.500000, -65.549999) "></path>
                    </g>
                    <g id="编组-46" transform="translate(155.271668, 95.949999)">
                        <path d="M5.47677484,1.62618696 C7.46303072,0.129435802 9.40978219,-0.309492437 10.8820609,0.208087975 L10.9118194,0.15827756 L11.2946668,0.384572104 C11.4211757,0.449014938 11.5433232,0.52145286 11.6607718,0.601807242 L27.3529606,9.89266703 L17.687661,25.6591099 L1.38654274,16.0471014 L1.42681169,15.979428 C0.78447153,15.398043 0.323804868,14.5351471 0.117533624,13.407679 C-0.570037188,9.64945217 1.82937684,4.37469851 5.47677484,1.62618696 Z" id="形状结合" fill="url(#linearGradient-5)"></path>
                        <path d="M18.90864,23.6725978 C23.4756771,23.6725978 28.5663603,20.9039957 30.2789992,17.4887518 C31.9916382,14.0735079 29.6776912,11.3049057 25.1106541,11.3049057 C20.543617,11.3049057 15.4529338,14.0735079 13.7402949,17.4887518 C12.027656,20.9039957 14.3416029,23.6725978 18.90864,23.6725978 Z" id="椭圆形" stroke="#979797" stroke-width="0.949999988" fill="#D8D8D8" transform="translate(22.009647, 17.488752) rotate(-37.000000) translate(-22.009647, -17.488752) "></path>
                    </g>
                    <path d="M173.416322,121.248698 C179.125118,121.248698 185.488473,117.787945 187.629272,113.51889 C189.77007,109.249835 186.877637,105.789082 181.16884,105.789082 C175.460043,105.789082 169.096689,109.249835 166.95589,113.51889 C164.815091,117.787945 167.707525,121.248698 173.416322,121.248698 Z" id="椭圆形" stroke="#979797" stroke-width="0.949999988" fill="#D8D8D8" transform="translate(177.292581, 113.518890) rotate(-37.000000) translate(-177.292581, -113.518890) "></path>
                </g>
                <g id="编组-46" transform="translate(49.899999, 118.749999)">
                    <path d="M7.04553488,2.18933974 C9.72421243,0.17081142 12.3454114,-0.308593572 14.2263321,0.592084792 L14.2565965,0.540416954 L151.231623,79.7691162 L139.149998,99.477171 L3.22395616,20.9073487 C1.77601121,20.3249736 0.722713997,18.9726653 0.346482958,16.9162057 C-0.512980609,12.2184218 2.4862871,5.62497937 7.04553488,2.18933974 Z" id="形状结合" fill="url(#linearGradient-23)"></path>
                    <path d="M140.964941,97.0667466 C146.673738,97.0667466 153.037093,93.6059937 155.177891,89.3369386 C157.31869,85.0678835 154.426256,81.6071306 148.71746,81.6071306 C143.008663,81.6071306 136.645308,85.0678835 134.50451,89.3369386 C132.363711,93.6059937 135.256145,97.0667466 140.964941,97.0667466 Z" id="椭圆形" stroke="#979797" stroke-width="0.854999967" fill="#D8D8D8" transform="translate(144.841201, 89.336939) rotate(-37.000000) translate(-144.841201, -89.336939) "></path>
                </g>
                <g id="编组-80" transform="translate(135.849998, 48.449999)">
                    <path d="M10.0163238,76.5986987 C15.7251205,76.5986987 22.0884749,73.1379458 24.2292737,68.8688907 C26.3700725,64.5998356 23.4776386,61.1390827 17.7688419,61.1390827 C12.0600452,61.1390827 5.69669076,64.5998356 3.55589199,68.8688907 C1.41509322,73.1379458 4.30752705,76.5986987 10.0163238,76.5986987 Z" id="椭圆形" fill="url(#linearGradient-4)" transform="translate(13.892583, 68.868891) rotate(-37.000000) translate(-13.892583, -68.868891) "></path>
                    <g id="编组-46" transform="translate(8.021669, 60.799999)">
                        <path d="M5.47677484,1.62618696 C7.46303072,0.129435802 9.40978219,-0.309492437 10.8820609,0.208087975 L10.9118194,0.15827756 L11.2946668,0.384572104 C11.4211757,0.449014938 11.5433232,0.52145286 11.6607718,0.601807242 L27.3529606,9.89266703 L17.687661,25.6591099 L1.38654274,16.0471014 L1.42681169,15.979428 C0.78447153,15.398043 0.323804868,14.5351471 0.117533624,13.407679 C-0.570037188,9.64945217 1.82937684,4.37469851 5.47677484,1.62618696 Z" id="形状结合" fill="url(#linearGradient-24)"></path>
                        <path d="M18.90864,23.6725978 C23.4756771,23.6725978 28.5663603,20.9039957 30.2789992,17.4887518 C31.9916382,14.0735079 29.6776912,11.3049057 25.1106541,11.3049057 C20.543617,11.3049057 15.4529338,14.0735079 13.7402949,17.4887518 C12.027656,20.9039957 14.3416029,23.6725978 18.90864,23.6725978 Z" id="椭圆形" stroke="#979797" stroke-width="0.949999988" fill="#D8D8D8" transform="translate(22.009647, 17.488752) rotate(-37.000000) translate(-22.009647, -17.488752) "></path>
                    </g>
                    <g id="编组-61" transform="translate(20.450000, 0.000000)">
                        <path d="M74.637531,0.283336752 L74.637531,18.7730494 L12.4708127,85.2742222 L11.7195881,93.5901991 L3.35334373,88.6671038 C1.94128646,88.0601757 0.916098793,86.7091937 0.54500001,84.6765288 C-0.281176231,80.1512125 2.43319832,73.8828973 6.67485484,70.3067048 L74.637531,0.283336752 Z" id="形状结合" fill="url(#linearGradient-25)"></path>
                        <path d="M83.1000008,5.22500005 L83.1000008,23.7147127 L20.9332825,90.2158855 L20.9258792,90.1982685 C20.3043327,90.8609852 19.6375539,91.4672092 18.933876,91.998583 C14.3423423,95.4658056 9.91850633,94.4332281 9.05295737,89.6922508 C8.29745678,85.5540549 10.5026605,79.9583161 14.1290446,76.2965424 L14.1266319,76.2903823 L83.1000008,5.22500005 Z" id="形状结合" fill="#97999C"></path>
                    </g>
                    <g id="编组-46" transform="translate(32.721669, 75.049999)">
                        <path d="M5.47677484,1.62618696 C7.46303072,0.129435802 9.40978219,-0.309492437 10.8820609,0.208087975 L10.9118194,0.15827756 L11.2946668,0.384572104 C11.4211757,0.449014938 11.5433232,0.52145286 11.6607718,0.601807242 L27.3529606,9.89266703 L17.687661,25.6591099 L1.38654274,16.0471014 L1.42681169,15.979428 C0.78447153,15.398043 0.323804868,14.5351471 0.117533624,13.407679 C-0.570037188,9.64945217 1.82937684,4.37469851 5.47677484,1.62618696 Z" id="形状结合" fill="url(#linearGradient-24)"></path>
                        <path d="M18.90864,23.6725978 C23.4756771,23.6725978 28.5663603,20.9039957 30.2789992,17.4887518 C31.9916382,14.0735079 29.6776912,11.3049057 25.1106541,11.3049057 C20.543617,11.3049057 15.4529338,14.0735079 13.7402949,17.4887518 C12.027656,20.9039957 14.3416029,23.6725978 18.90864,23.6725978 Z" id="椭圆形" stroke="#979797" stroke-width="0.949999988" fill="#D8D8D8" transform="translate(22.009647, 17.488752) rotate(-37.000000) translate(-22.009647, -17.488752) "></path>
                    </g>
                    <g id="编组-81" transform="translate(42.299999, 59.849999)">
                        <g id="编组-79" transform="translate(24.549413, 60.282842) rotate(13.000000) translate(-24.549413, -60.282842) translate(6.049413, 41.782842)">
                            <path d="M36.6584337,12.0760191 L36.6584337,25.995418 L36.6317314,25.9960361 C36.1137907,31.5775903 28.1259528,36.0111794 18.3480267,36.0111794 C8.57010065,36.0111794 0.582262772,31.5775903 0.0643219791,25.9960361 L0.0376197146,25.995418 L0.0376197146,12.0760191 L36.6584337,12.0760191 Z" id="形状结合" fill="url(#linearGradient-26)"></path>
                            <ellipse id="椭圆形" stroke="#979797" stroke-width="0.949999988" fill="#D8D8D8" cx="18.310407" cy="10.5921022" rx="18.310407" ry="10.5921022"></ellipse>
                        </g>
                        <g id="编组-79" transform="translate(30.630735, 39.707927) rotate(13.000000) translate(-30.630735, -39.707927) translate(5.130735, 14.207927)">
                            <path d="M50.9144956,16.7722501 L50.9144956,36.1047503 L50.8774565,36.1050982 C50.158534,43.8574976 39.0641248,50.0155313 25.4833726,50.0155313 C11.9026204,50.0155313 0.808211212,43.8574976 0.0892887235,36.1050982 L0.0522496081,36.1047503 L0.0522496081,16.7722501 L50.9144956,16.7722501 Z" id="形状结合" fill="url(#linearGradient-27)"></path>
                            <ellipse id="椭圆形" fill="#4172BD" cx="25.431123" cy="14.7112543" rx="25.431123" ry="14.7112543"></ellipse>
                        </g>
                        <g id="编组-79" transform="translate(35.949412, 22.282843) rotate(13.000000) translate(-35.949412, -22.282843) translate(17.449412, 3.782843)">
                            <path d="M36.6584337,12.0760191 L36.6584337,25.995418 L36.6317314,25.9960361 C36.1137907,31.5775903 28.1259528,36.0111794 18.3480267,36.0111794 C8.57010065,36.0111794 0.582262772,31.5775903 0.0643219791,25.9960361 L0.0376197146,25.995418 L0.0376197146,12.0760191 L36.6584337,12.0760191 Z" id="形状结合" fill="url(#linearGradient-28)"></path>
                            <ellipse id="椭圆形" fill="#4172BD" cx="18.310407" cy="10.5921022" rx="18.310407" ry="10.5921022"></ellipse>
                        </g>
                    </g>
                    <g id="编组-46" transform="translate(86.871668, 106.399999)" fill="#D8D8D8" stroke="#979797" stroke-width="0.949999988">
                        <path d="M5.47677484,1.62618696 C7.46303072,0.129435802 9.40978219,-0.309492437 10.8820609,0.208087975 L10.9118194,0.15827756 L11.2946668,0.384572104 C11.4211757,0.449014938 11.5433232,0.52145286 11.6607718,0.601807242 L27.3529606,9.89266703 L17.687661,25.6591099 L1.38654274,16.0471014 L1.42681169,15.979428 C0.78447153,15.398043 0.323804868,14.5351471 0.117533624,13.407679 C-0.570037188,9.64945217 1.82937684,4.37469851 5.47677484,1.62618696 Z" id="形状结合"></path>
                        <path d="M18.90864,23.6725978 C23.4756771,23.6725978 28.5663603,20.9039957 30.2789992,17.4887518 C31.9916382,14.0735079 29.6776912,11.3049057 25.1106541,11.3049057 C20.543617,11.3049057 15.4529338,14.0735079 13.7402949,17.4887518 C12.027656,20.9039957 14.3416029,23.6725978 18.90864,23.6725978 Z" id="椭圆形" transform="translate(22.009647, 17.488752) rotate(-37.000000) translate(-22.009647, -17.488752) "></path>
                    </g>
                    <g id="编组-61" transform="translate(101.199999, 45.599999)" fill="#D8D8D8" stroke="#979797" stroke-width="0.949999988">
                        <path d="M74.637531,0.283336752 L74.637531,18.7730494 L12.4708127,85.2742222 L11.7195881,93.5901991 L3.35334373,88.6671038 C1.94128646,88.0601757 0.916098793,86.7091937 0.54500001,84.6765288 C-0.281176231,80.1512125 2.43319832,73.8828973 6.67485484,70.3067048 L74.637531,0.283336752 Z" id="形状结合"></path>
                        <path d="M83.1000008,5.22500005 L83.1000008,23.7147127 L20.9332825,90.2158855 L20.9258792,90.1982685 C20.3043327,90.8609852 19.6375539,91.4672092 18.933876,91.998583 C14.3423423,95.4658056 9.91850633,94.4332281 9.05295737,89.6922508 C8.29745678,85.5540549 10.5026605,79.9583161 14.1290446,76.2965424 L14.1266319,76.2903823 L83.1000008,5.22500005 Z" id="形状结合"></path>
                    </g>
                    <g id="编组-46" transform="translate(112.521668, 121.599998)" fill="#D8D8D8" stroke="#979797" stroke-width="0.949999988">
                        <path d="M5.47677484,1.62618696 C7.46303072,0.129435802 9.40978219,-0.309492437 10.8820609,0.208087975 L10.9118194,0.15827756 L11.2946668,0.384572104 C11.4211757,0.449014938 11.5433232,0.52145286 11.6607718,0.601807242 L27.3529606,9.89266703 L17.687661,25.6591099 L1.38654274,16.0471014 L1.42681169,15.979428 C0.78447153,15.398043 0.323804868,14.5351471 0.117533624,13.407679 C-0.570037188,9.64945217 1.82937684,4.37469851 5.47677484,1.62618696 Z" id="形状结合"></path>
                        <path d="M18.90864,23.6725978 C23.4756771,23.6725978 28.5663603,20.9039957 30.2789992,17.4887518 C31.9916382,14.0735079 29.6776912,11.3049057 25.1106541,11.3049057 C20.543617,11.3049057 15.4529338,14.0735079 13.7402949,17.4887518 C12.027656,20.9039957 14.3416029,23.6725978 18.90864,23.6725978 Z" id="椭圆形" transform="translate(22.009647, 17.488752) rotate(-37.000000) translate(-22.009647, -17.488752) "></path>
                    </g>
                    <path d="M130.666322,146.898698 C136.375119,146.898698 142.738473,143.437945 144.879272,139.16889 C147.020071,134.899835 144.127637,131.439082 138.41884,131.439082 C132.710044,131.439082 126.346689,134.899835 124.20589,139.16889 C122.065092,143.437945 124.957526,146.898698 130.666322,146.898698 Z" id="椭圆形" stroke="#979797" stroke-width="0.949999988" fill="#D8D8D8" transform="translate(134.542581, 139.168890) rotate(-37.000000) translate(-134.542581, -139.168890) "></path>
                </g>
                <polygon id="路径-163" fill="#DFE1E4" points="439.653354 126.679976 371.449995 166.475722 234.649997 87.7705778 302.85999 48.3153619"></polygon>
                <g id="编组-83" transform="translate(285.949996, 37.050000)" stroke="url(#linearGradient-29)" stroke-width="1.25">
                    <path d="M90.8768875,125.63823 L90.8768875,113.28823 M96.5768875,122.78823 L96.5768875,110.43823 M102.276887,118.98823 L102.276887,106.63823 M107.976887,116.13823 L107.976887,103.78823 M113.676887,112.33823 L113.676887,99.98823 M120.326887,108.53823 L120.326887,96.1882301 M126.026887,105.68823 L126.026887,93.3382301 M131.726887,102.83823 L131.726887,90.4882302 M137.426887,99.03823 L137.426887,86.6882302 M143.126887,96.1882301 L143.126887,83.8382302 M147.876887,93.3382301 L147.876887,80.9882303 M147.876887,87.6382302 L147.876887,75.2882303 M142.176887,84.7882302 L142.176887,72.4382304 M136.476887,80.9882303 L136.476887,68.6382304 M130.776887,78.1382303 L130.776887,65.7882305 M125.076887,74.3382304 L125.076887,61.9882305 M118.426887,71.4882304 L118.426887,59.1382305 M112.726887,67.6882304 L112.726887,55.3382306 M107.026887,63.8882305 L107.026887,51.5382306 M101.326887,61.0382305 L101.326887,48.6882307 M95.6268875,58.1882306 L95.6268875,45.8382307 M88.9768876,53.4382306 L88.9768876,41.0882308 M83.2768876,50.5882307 L83.2768876,38.2382308 M77.5768877,47.7382307 L77.5768877,35.3882308 M71.8768878,43.9382307 L71.8768878,31.5882309 M66.1768879,41.0882308 L66.1768879,28.7382309 M60.4768879,37.2882308 L60.4768879,24.938231 M54.776888,34.4382309 L54.776888,22.088231 M49.0768881,30.6382309 L49.0768881,18.2882311 M43.3768881,27.7882309 L43.3768881,15.4382311 M37.6768882,24.938231 L37.6768882,12.5882311 M31.9768883,21.138231 L31.9768883,8.78823118 M26.2768884,18.2882311 L26.2768884,5.93823121 M20.5768884,14.4882311 L20.5768884,2.13823126 M14.8768885,12.5882311 L14.8768885,0.238231285 M9.17688857,16.3882311 L9.17688857,4.03823124 M17.5351656,0.816249705 L150.005046,76.7874242 C150.915317,77.3094624 151.230041,78.4705781 150.708003,79.3808488 C150.537711,79.6777854 150.290363,79.9232023 149.992101,80.0911626 L86.5694843,115.806354 C85.4102627,116.459147 84.6768455,117.67064 84.6358651,119.000397 L84.3218753,129.188954 L-5.68434189e-14,9.31100489 L14.6913037,0.820947791 C15.5706982,0.312748556 16.6540968,0.310958771 17.5351656,0.816249705 Z" id="形状结合"></path>
                </g>
                <g id="编组-62" transform="translate(160.481940, 142.424920)">
                    <path d="M79.8245997,2.19927082 C82.6428011,0.302332476 85.3531842,-0.0591467664 87.3029369,0.962777906 L87.3576276,0.958367352 L91.6398217,2.90569127 L90.2129275,7.89606117 C90.0733949,10.0434755 89.3952031,12.3566926 88.3109127,14.5442975 L77.2281686,53.29972 L72.9186162,61.6670374 L61.8408525,68.198954 L7.1016404,103.54027 L3.51945287,101.725526 C1.82885142,101.115093 0.594928151,99.5898424 0.163241159,97.2302634 C-0.0193342683,96.2323155 -0.0451924676,95.1573779 0.0678172472,94.0446897 L0.0679264018,59.5341781 C-0.518143028,54.3711641 2.74656168,47.479405 7.60663238,43.817079 C8.18788485,43.3790739 8.76670155,43.0062923 9.33743165,42.6974181 L9.36651719,42.6508535 L74.8937041,4.81930529 Z" id="形状结合" fill="url(#linearGradient-1)"></path>
                    <path d="M85.1818546,3.51024515 C89.6181114,1.06555321 93.5831922,2.47565249 94.4337669,7.12484975 C94.5488569,7.75392625 94.6016729,8.41359586 94.5966857,9.09402965 L94.6085029,9.10283195 L94.3053727,47.8758432 L94.2681654,47.94869 C94.2474382,50.886499 92.5055569,54.3826864 89.9656211,56.2966653 C89.3974639,56.7248025 88.8309273,57.0424583 88.2820146,57.2537467 L78.9180566,62.7750771 L78.918,71.1830184 L78.945116,71.3047812 C79.5614845,74.3559307 77.8067,78.5462165 75.0017682,80.812341 L74.7656213,80.996665 C73.7315792,81.7758717 72.7029052,82.1891225 71.7760744,82.2612195 L12.1063201,103.280709 C8.13335203,104.929178 4.74220818,103.388057 3.96324111,99.1302634 C3.78066568,98.1323154 3.75480748,97.0573778 3.8678172,95.9446897 L3.86792635,61.434178 C3.28185692,56.271164 6.54656163,49.379405 11.4066323,45.717079 C11.9878848,45.2790738 12.5667015,44.9062923 13.1374316,44.5974181 L13.1665171,44.5508535 L78.9180566,6.80224168 L85.1508757,3.49179636 Z" id="形状结合" fill="#C2C6CB"></path>
                </g>
                <g id="编组-43" transform="translate(155.723624, 6.877172)">
                    <polygon id="路径-164" fill="#74787C" points="-6.72960488e-15 45.4327626 0 61.2499992 124.711807 133.722826 124.711807 117.384555"></polygon>
                    <polygon id="路径-158" fill="#DFE1E4" points="1.11158353e-13 45.4327626 125.322013 118.080384 203.299997 72.9228268 78.5463604 0.143406572"></polygon>
                </g>
                <g id="编组-68" transform="translate(160.149998, 77.799999)">
                    <polygon id="路径-139" fill="#C2C6CB" points="41.6799973 212.631231 41.6799973 175.778249 78.1599947 84.3599939 211.919985 7.02057877 211.919985 147.620569 70.5599904 229.443993 70.5599904 212.631231 55.9679923 204.169911"></polygon>
                    <g id="编组-76" transform="translate(0.000000, 203.649998)">
                        <g id="编组-78" transform="translate(15.839999, 37.194011)">
                            <path d="M5.90973771,1.74845259 C8.05287012,0.139278829 10.153378,-0.332699026 11.7420099,0.22361253 L11.7744679,0.170179139 L12.2482503,0.445013879 C12.3191124,0.482698535 12.3886648,0.522744676 12.4568549,0.565140103 L19.3799986,4.57925169 L9.15437564,21.6599984 L1.49615773,17.2537528 L1.54021431,17.1815356 C0.846777666,16.5564276 0.349468323,15.62846 0.126825402,14.4158607 C-0.61510224,10.3750365 1.97400067,4.70365112 5.90973771,1.74845259 Z" id="形状结合" fill="url(#linearGradient-30)"></path>
                            <path d="M10.8855637,20.0622983 C15.8235388,20.0144948 21.3566702,16.9511209 23.2441585,13.2200613 C25.1316467,9.48900163 22.6587385,6.50313256 17.7207634,6.55093606 C12.7827883,6.59873956 7.2496569,9.66211342 5.36216863,13.3931731 C3.47468035,17.1242327 5.94758856,20.1101018 10.8855637,20.0622983 Z" id="椭圆形" fill="url(#linearGradient-31)" transform="translate(14.303164, 13.306617) rotate(-37.000000) translate(-14.303164, -13.306617) "></path>
                        </g>
                        <g id="编组-78" transform="translate(42.059997, 21.234012)">
                            <path d="M5.90973771,1.74845259 C8.05287012,0.139278829 10.153378,-0.332699026 11.7420099,0.22361253 L11.7744679,0.170179139 L12.2482503,0.445013879 C12.3191124,0.482698535 12.3886648,0.522744676 12.4568549,0.565140103 L19.3799986,4.57925169 L9.15437564,21.6599984 L1.49615773,17.2537528 L1.54021431,17.1815356 C0.846777666,16.5564276 0.349468323,15.62846 0.126825402,14.4158607 C-0.61510224,10.3750365 1.97400067,4.70365112 5.90973771,1.74845259 Z" id="形状结合" fill="url(#linearGradient-30)"></path>
                            <path d="M10.8855637,20.0622983 C15.8235388,20.0144948 21.3566702,16.9511209 23.2441585,13.2200613 C25.1316467,9.48900163 22.6587385,6.50313256 17.7207634,6.55093606 C12.7827883,6.59873956 7.2496569,9.66211342 5.36216863,13.3931731 C3.47468035,17.1242327 5.94758856,20.1101018 10.8855637,20.0622983 Z" id="椭圆形" fill="url(#linearGradient-31)" transform="translate(14.303164, 13.306617) rotate(-37.000000) translate(-14.303164, -13.306617) "></path>
                        </g>
                        <polygon id="路径-140" fill="#A7ABAF" points="26.7839962 17.3693015 55.9679923 0.519913512 70.5599904 8.94460753 70.5599904 25.7939956 12.1919981 59.5379911 12.1919981 42.6886031"></polygon>
                        <polygon id="路径-141" fill="#74787C" points="12.1919981 59.5379911 0.108001732 52.345339 0.108001732 35.495951 12.1919981 42.6886031"></polygon>
                        <polygon id="路径-142" fill="#A2A5A8" points="12.1919981 42.6886031 0.108001732 35.495951 14.6999998 10.1766494 26.7839962 17.3693015"></polygon>
                        <polygon id="路径-143" fill="#DFE1E4" points="26.7839962 17.3693015 14.6999998 10.1766494 29.9100975 1.26850934 41.9645819 8.58126454"></polygon>
                    </g>
                    <polygon id="路径-146" fill="#DFE1E4" points="78.1599947 84.3599939 211.919985 7.02057877 199.759986 0 65.9999955 77.3394151"></polygon>
                    <polygon id="路径-145" fill="#A2A5A8" points="29.5199982 168.719988 41.6799973 175.740567 78.1599947 84.3599939 65.9999955 77.3394151"></polygon>
                    <polygon id="路径-144" fill="#74787C" points="41.6799973 212.058826 29.5199982 205.038247 29.5199982 168.719988 41.6799973 175.740567"></polygon>
                </g>
                <g id="编组-78" transform="translate(171.949998, 191.899998)">
                    <path d="M6.0835651,1.84049173 C8.28974925,0.14659749 10.4520576,-0.35021736 12.0874192,0.235402499 L12.1207765,0.179135946 L12.6312241,0.480901571 C12.7040509,0.521176304 12.7755179,0.563946558 12.8455706,0.609199406 L19.9499997,4.82026522 L9.42362254,22.7999997 L1.54016246,18.1618461 L1.58518865,18.0855272 C0.871527142,17.4275222 0.359711947,16.4508173 0.130555569,15.1745912 C-0.63319352,10.9210917 2.03205963,4.951212 6.0835651,1.84049173 Z" id="形状结合" fill="url(#linearGradient-32)"></path>
                    <path d="M11.5632927,20.5408461 C16.7010302,20.5578484 22.4174994,17.4682452 24.3313839,13.6399539 C26.2452685,9.81166263 23.6318193,6.6943792 18.4940818,6.6772361 C13.3563443,6.66023384 7.63987511,9.74983699 5.72599054,13.5781283 C3.81210598,17.4064196 6.42555516,20.523703 11.5632927,20.5408461 Z" id="椭圆形" fill="url(#linearGradient-33)" transform="translate(15.028687, 13.609041) rotate(-37.000000) translate(-15.028687, -13.609041) "></path>
                </g>
                <g id="编组-78" transform="translate(381.500000, 199.000000)">
                    <path d="M5.90973771,1.74845259 C8.05287012,0.139278829 10.153378,-0.332699026 11.7420099,0.22361253 L11.7744679,0.170179139 L12.2482503,0.445013879 C12.3191124,0.482698535 12.3886648,0.522744676 12.4568549,0.565140103 L19.3799986,4.57925169 L9.15437564,21.6599984 L1.49615773,17.2537528 L1.54021431,17.1815356 C0.846777666,16.5564276 0.349468323,15.62846 0.126825402,14.4158607 C-0.61510224,10.3750365 1.97400067,4.70365112 5.90973771,1.74845259 Z" id="形状结合" fill="url(#linearGradient-30)"></path>
                    <path d="M10.8855637,20.0622983 C15.8235388,20.0144948 21.3566702,16.9511209 23.2441585,13.2200613 C25.1316467,9.48900163 22.6587385,6.50313256 17.7207634,6.55093606 C12.7827883,6.59873956 7.2496569,9.66211342 5.36216863,13.3931731 C3.47468035,17.1242327 5.94758856,20.1101018 10.8855637,20.0622983 Z" id="椭圆形" fill="url(#linearGradient-31)" transform="translate(14.303164, 13.306617) rotate(-37.000000) translate(-14.303164, -13.306617) "></path>
                </g>
                <g id="编组-78" transform="translate(410.500000, 181.000000)">
                    <path d="M5.90973771,1.74845259 C8.05287012,0.139278829 10.153378,-0.332699026 11.7420099,0.22361253 L11.7744679,0.170179139 L12.2482503,0.445013879 C12.3191124,0.482698535 12.3886648,0.522744676 12.4568549,0.565140103 L19.3799986,4.57925169 L9.15437564,21.6599984 L1.49615773,17.2537528 L1.54021431,17.1815356 C0.846777666,16.5564276 0.349468323,15.62846 0.126825402,14.4158607 C-0.61510224,10.3750365 1.97400067,4.70365112 5.90973771,1.74845259 Z" id="形状结合" fill="url(#linearGradient-30)"></path>
                    <path d="M10.8855637,20.0622983 C15.8235388,20.0144948 21.3566702,16.9511209 23.2441585,13.2200613 C25.1316467,9.48900163 22.6587385,6.50313256 17.7207634,6.55093606 C12.7827883,6.59873956 7.2496569,9.66211342 5.36216863,13.3931731 C3.47468035,17.1242327 5.94758856,20.1101018 10.8855637,20.0622983 Z" id="椭圆形" fill="url(#linearGradient-31)" transform="translate(14.303164, 13.306617) rotate(-37.000000) translate(-14.303164, -13.306617) "></path>
                </g>
                <polygon id="路径-160" fill="#B3B7BD" points="371.069983 227.420568 371.069983 166.566031 439.653354 126.679976 439.653354 186.920668"></polygon>
            </g>
        </g>
    </g>
</svg>